<svg width="57" height="57" viewBox="0 0 57 57" fill="none" xmlns="http://www.w3.org/2000/svg">
<path d="M34.4797 16.9957L35.2098 16.7197C34.959 16.7207 34.7143 16.8157 34.4797 16.9957Z" stroke="white" stroke-miterlimit="10" stroke-linecap="round" stroke-linejoin="round"/>
<path d="M35.2092 38.7978L34.5247 38.5552C34.7451 38.7139 34.9746 38.7978 35.2092 38.7978Z" stroke="white" stroke-miterlimit="10" stroke-linecap="round" stroke-linejoin="round"/>
<path d="M44.695 18.5493L40.5566 21.6188" stroke="white" stroke-miterlimit="10" stroke-linecap="round" stroke-linejoin="round"/>
<path d="M44.7379 37.3283L40.5996 34.2588" stroke="white" stroke-miterlimit="10" stroke-linecap="round" stroke-linejoin="round"/>
<path d="M41.2029 27.9673H46.3619" stroke="white" stroke-miterlimit="10" stroke-linecap="round" stroke-linejoin="round"/>
<path d="M35.2097 16.7212L34.4802 16.997C33.2768 17.9213 32.326 21.0821 32.031 25.1146C32.128 25.0914 32.228 25.0783 32.3301 25.0783C33.389 25.0783 34.2468 26.4127 34.2468 28.0593C34.2468 29.7058 33.389 31.0402 32.3301 31.0402C32.2452 31.0402 32.1624 31.0311 32.0815 31.014C32.4281 34.8021 33.3627 37.7214 34.5256 38.5558L35.2097 38.7983C37.0172 38.7983 38.4833 33.8566 38.4833 27.7602C38.4833 21.6629 37.0182 16.7212 35.2097 16.7212Z" stroke="white" stroke-miterlimit="10" stroke-linecap="round" stroke-linejoin="round"/>
<path d="M16.3874 32.1343H14.5808L13.233 39.556C13.1774 39.863 13.3815 40.158 13.6887 40.2136L16.1257 40.656C16.4329 40.7116 16.7279 40.5075 16.7835 40.2004L18.1364 32.7525L16.3874 32.1343Z" stroke="white" stroke-miterlimit="10" stroke-linecap="round" stroke-linejoin="round"/>
<path d="M12.8979 23.8267C12.1937 23.8267 11.6228 24.3974 11.6228 25.1015V30.8584C11.6228 31.5625 12.1937 32.1332 12.8979 32.1332H14.5802H16.3868V30.9897V23.8257L12.8979 23.8267Z" stroke="white" stroke-miterlimit="10" stroke-linecap="round" stroke-linejoin="round"/>
<path d="M32.0797 31.0136C31.9857 29.9842 31.9342 28.8922 31.9342 27.7588C31.9342 26.8467 31.9675 25.9618 32.0292 25.1142C32.3232 21.0817 33.2739 17.9199 34.4782 16.9966L16.3875 23.8273V30.9913V32.1348L18.1354 32.7541L34.5238 38.5554C33.3598 37.721 32.4262 34.8027 32.0797 31.0136Z" stroke="white" stroke-miterlimit="10" stroke-linecap="round" stroke-linejoin="round"/>
<path d="M32.0808 31.0128C32.1626 31.029 32.2455 31.0391 32.3294 31.0391C33.3882 31.0391 34.246 29.7047 34.246 28.0581C34.246 26.4115 33.3882 25.0771 32.3294 25.0771C32.2273 25.0771 32.1283 25.0892 32.0303 25.1135C31.9686 25.961 31.9353 26.8459 31.9353 27.7581C31.9353 28.8915 31.9868 29.9845 32.0808 31.0128Z" stroke="white" stroke-miterlimit="10" stroke-linecap="round" stroke-linejoin="round"/>
<path d="M28.5 56.5C43.964 56.5 56.5 43.964 56.5 28.5C56.5 13.036 43.964 0.5 28.5 0.5C13.036 0.5 0.5 13.036 0.5 28.5C0.5 43.964 13.036 56.5 28.5 56.5Z" stroke="white"/>
</svg>
