<svg width="57" height="57" viewBox="0 0 57 57" fill="none" xmlns="http://www.w3.org/2000/svg">
<path d="M28.3071 12.2124V22.4128" stroke="white" stroke-miterlimit="10" stroke-linecap="round" stroke-linejoin="round"/>
<path d="M21.2793 15.3877H31.527" stroke="white" stroke-miterlimit="10" stroke-linecap="round" stroke-linejoin="round"/>
<path d="M26.157 19.1917H30.4523" stroke="white" stroke-miterlimit="10" stroke-linecap="round" stroke-linejoin="round"/>
<path d="M29.1209 37.4458C29.1209 37.4458 28.1553 39.0397 28.1828 40.6098C28.2095 42.1792 29.3461 43.3944 29.3461 45.1615C29.3461 47.0805 28.4125 48.153 27.3774 49.0087" stroke="white" stroke-miterlimit="10" stroke-linecap="round" stroke-linejoin="round"/>
<path d="M23.9652 20.9099H23.9622L25.5728 37.4451H28.3047H31.0367L32.6473 20.9099H32.645C31.4496 21.8503 29.9436 22.4129 28.3047 22.4129C26.6666 22.4129 25.1606 21.8503 23.9652 20.9099Z" stroke="white" stroke-miterlimit="10" stroke-linecap="round" stroke-linejoin="round"/>
<path d="M28.3057 8.35962C24.425 8.35962 21.2793 11.5053 21.2793 15.3861C21.2793 17.628 22.3304 19.6233 23.9654 20.9095C25.1608 21.8499 26.6669 22.4125 28.3057 22.4125C29.9446 22.4125 31.4506 21.8499 32.646 20.9095C34.2811 19.6233 35.3322 17.628 35.3322 15.3861C35.3322 11.5053 32.1865 8.35962 28.3057 8.35962Z" stroke="white" stroke-miterlimit="10" stroke-linecap="round" stroke-linejoin="round"/>
<path d="M28.5 56.5C43.964 56.5 56.5 43.964 56.5 28.5C56.5 13.036 43.964 0.5 28.5 0.5C13.036 0.5 0.5 13.036 0.5 28.5C0.5 43.964 13.036 56.5 28.5 56.5Z" stroke="white"/>
</svg>
