<svg width="57" height="57" viewBox="0 0 57 57" fill="none" xmlns="http://www.w3.org/2000/svg">
<path d="M28.5 56.0341C43.7065 56.0341 56.0339 43.7067 56.0339 28.5002C56.0339 13.2937 43.7065 0.966309 28.5 0.966309C13.2934 0.966309 0.966064 13.2937 0.966064 28.5002C0.966064 43.7067 13.2934 56.0341 28.5 56.0341Z" stroke="white" stroke-width="0.966102" stroke-miterlimit="10"/>
<path d="M32.9324 28.8921L40.6667 36.6263L36.8317 40.4618L29.0436 32.6738" stroke="white" stroke-width="0.966102" stroke-linejoin="round"/>
<path d="M24.9657 28.5962L17.2073 20.8379L21.0422 17.0029L28.7475 24.7075" stroke="white" stroke-width="0.966102" stroke-linejoin="round"/>
<path d="M15.3215 17.2779L17.4802 15.1192C17.7025 14.8969 18.0041 14.772 18.3185 14.772C18.6329 14.772 18.9345 14.8969 19.1568 15.1192L21.0407 17.0032L17.2077 20.8362L15.3219 18.9506C15.1008 18.7284 14.9765 18.4278 14.9764 18.1143C14.9763 17.8009 15.1005 17.5001 15.3215 17.2779Z" stroke="white" stroke-width="0.966102" stroke-linejoin="round"/>
<path d="M26.8326 26.6265L19.1255 18.9194" stroke="white" stroke-width="0.966102" stroke-linejoin="round"/>
<path d="M38.7489 38.5422L31.0127 30.8062" stroke="white" stroke-width="0.966102" stroke-linejoin="round"/>
<path d="M36.8296 40.461L42.4329 42.2288L40.6645 36.6255L36.8296 40.461Z" stroke="white" stroke-width="0.966102" stroke-linejoin="round"/>
<path d="M29.9581 23.513C31.6664 22.075 39.6864 15.939 39.6864 15.939C40.901 15.2795 42.2283 16.6066 41.5687 17.8212C41.5687 17.8212 35.4326 25.8413 33.9947 27.5497C32.063 29.8452 24.51 35.5246 24.51 35.5246C24.3733 35.6144 24.2099 35.6542 24.0472 35.6374C23.8846 35.6207 23.7326 35.5482 23.6172 35.4325L22.0753 33.8905C21.9596 33.775 21.8873 33.6231 21.8705 33.4605C21.8537 33.2979 21.8935 33.1344 21.9831 32.9977C21.9831 32.9977 27.6631 25.4447 29.9581 23.513Z" stroke="white" stroke-width="0.966102" stroke-linejoin="round"/>
<path d="M21.2354 40.0624C22.0287 39.1281 22.2996 38.0311 21.8455 36.9688C21.5715 36.3304 21.0551 35.827 20.4099 35.5693C19.7648 35.3115 19.0437 35.3206 18.4053 35.5945C18.1471 35.7053 17.9086 35.857 17.6987 36.0437C16.3449 37.0275 16.5157 38.7464 16.3703 39.4895C16.0479 41.1391 14.5691 40.8946 14.5691 40.8946C15.0945 42.1185 17.0911 42.4365 19.0296 41.6049C19.9682 41.2059 20.7169 40.6731 21.2354 40.0624Z" stroke="white" stroke-width="0.966102" stroke-linejoin="round"/>
<path d="M23.2402 31.0806L26.4694 34.2374" stroke="white" stroke-width="0.966102" stroke-linejoin="round"/>
</svg>
