<svg width="57" height="57" viewBox="0 0 57 57" fill="none" xmlns="http://www.w3.org/2000/svg">
<path d="M28.5 56.0339C43.7065 56.0339 56.0339 43.7065 56.0339 28.5C56.0339 13.2934 43.7065 0.966064 28.5 0.966064C13.2934 0.966064 0.966064 13.2934 0.966064 28.5C0.966064 43.7065 13.2934 56.0339 28.5 56.0339Z" stroke="white" stroke-width="0.966102" stroke-miterlimit="10"/>
<path d="M23.3728 37.5808C25.7539 37.5808 27.6841 35.6505 27.6841 33.2694C27.6841 30.8883 25.7539 28.958 23.3728 28.958C20.9917 28.958 19.0614 30.8883 19.0614 33.2694C19.0614 35.6505 20.9917 37.5808 23.3728 37.5808Z" stroke="white" stroke-width="0.966102" stroke-linejoin="round"/>
<path d="M24.8979 24.1667L26.3303 22.5796C26.444 22.4536 26.594 22.3658 26.7597 22.3285C26.9253 22.2911 27.0984 22.3061 27.2553 22.3711L28.3325 22.8178C28.4897 22.8831 28.6228 22.9956 28.7136 23.1396C28.8043 23.2836 28.8482 23.4522 28.8393 23.6222L28.7298 25.7575C28.7152 26.0447 28.761 26.3318 28.8644 26.6003C28.9677 26.8687 29.1261 27.1125 29.3296 27.3159C29.5329 27.5192 29.7767 27.6777 30.0451 27.7811C30.3135 27.8843 30.6007 27.9302 30.8879 27.9156L33.0232 27.8068C33.1932 27.7975 33.3618 27.8412 33.5059 27.9319C33.65 28.0225 33.7623 28.1556 33.8275 28.3129L34.273 29.3882C34.3387 29.5455 34.3538 29.7193 34.3163 29.8856C34.2789 30.0519 34.1907 30.2024 34.0639 30.3163L32.4768 31.7493C32.2634 31.9421 32.0928 32.1775 31.976 32.4403C31.8593 32.7032 31.7989 32.9876 31.7989 33.2752C31.7989 33.5627 31.8593 33.8471 31.976 34.11C32.0928 34.3728 32.2634 34.6082 32.4768 34.8009L34.0639 36.234C34.1907 36.3479 34.279 36.4984 34.3165 36.6647C34.354 36.8309 34.3388 37.0048 34.273 37.1621L33.8275 38.2368C33.7625 38.3942 33.6502 38.5275 33.5061 38.6183C33.362 38.7091 33.1933 38.7529 33.0232 38.7435L30.8879 38.6346C30.6007 38.6199 30.3135 38.6656 30.045 38.7688C29.7766 38.872 29.5327 39.0304 29.3294 39.2338C29.1259 39.4372 28.9675 39.6809 28.8642 39.9494C28.7609 40.2178 28.7151 40.5049 28.7298 40.7922L28.8393 42.9281C28.8484 43.0981 28.8046 43.2668 28.7138 43.4108C28.623 43.5549 28.4898 43.6673 28.3325 43.7325L27.2572 44.1779C27.1003 44.2429 26.9271 44.2576 26.7616 44.2203C26.596 44.183 26.446 44.0953 26.3321 43.9694L24.8998 42.3823C24.707 42.1687 24.4716 41.998 24.2087 41.8811C23.9459 41.7642 23.6613 41.7038 23.3736 41.7038C23.0859 41.7038 22.8014 41.7642 22.5385 41.8811C22.2757 41.998 22.0402 42.1687 21.8475 42.3823L20.4151 43.9694C20.301 44.096 20.1505 44.184 19.9843 44.2214C19.818 44.2587 19.6443 44.2435 19.487 44.1779L18.4116 43.7325C18.2543 43.6673 18.121 43.555 18.0302 43.4109C17.9395 43.2668 17.8956 43.0981 17.9049 42.9281L18.0144 40.7922C18.0291 40.5049 17.9833 40.2178 17.88 39.9494C17.7767 39.6809 17.6183 39.4372 17.4149 39.2338C17.2114 39.0304 16.9676 38.872 16.6991 38.7688C16.4306 38.6656 16.1435 38.6199 15.8563 38.6346L13.721 38.7435C13.5509 38.7529 13.3822 38.7091 13.2381 38.6183C13.094 38.5275 12.9817 38.3942 12.9166 38.2368L12.4712 37.1621C12.4054 37.0048 12.3902 36.8309 12.4277 36.6647C12.4652 36.4984 12.5535 36.3479 12.6802 36.234L14.2674 34.8009C14.4808 34.6082 14.6514 34.3728 14.7682 34.11C14.8849 33.8471 14.9453 33.5627 14.9453 33.2752C14.9453 32.9876 14.8849 32.7032 14.7682 32.4403C14.6514 32.1775 14.4808 31.9421 14.2674 31.7493L12.6802 30.3163C12.5535 30.2024 12.4653 30.0519 12.4279 29.8856C12.3904 29.7193 12.4055 29.5455 12.4712 29.3882L12.9166 28.3129C12.9819 28.1556 13.0942 28.0225 13.2383 27.9319C13.3824 27.8412 13.551 27.7975 13.721 27.8068L15.8563 27.9156C16.1435 27.9302 16.4306 27.8843 16.699 27.7811C16.9675 27.6777 17.2113 27.5192 17.4147 27.3159C17.6181 27.1125 17.7765 26.8687 17.8798 26.6003C17.9832 26.3318 18.029 26.0447 18.0144 25.7575L17.9049 23.6222C17.8957 23.4522 17.9396 23.2835 18.0304 23.1394C18.1211 22.9954 18.2544 22.883 18.4116 22.8178L19.487 22.3729C19.6443 22.3071 19.818 22.2919 19.9844 22.3293C20.1506 22.3666 20.3011 22.4547 20.4151 22.5815L21.8475 24.1685C22.0404 24.3815 22.2759 24.5518 22.5387 24.6682C22.8014 24.7846 23.0857 24.8447 23.3731 24.8445C23.6606 24.8444 23.9447 24.7839 24.2074 24.6672C24.47 24.5504 24.7052 24.3799 24.8979 24.1667Z" stroke="white" stroke-width="0.966102" stroke-linejoin="round"/>
<path d="M37.652 22.2973C39.0817 22.2973 40.2408 21.1382 40.2408 19.7085C40.2408 18.2787 39.0817 17.1196 37.652 17.1196C36.2223 17.1196 35.0632 18.2787 35.0632 19.7085C35.0632 21.1382 36.2223 22.2973 37.652 22.2973Z" stroke="white" stroke-width="0.966102" stroke-linejoin="round"/>
<path d="M37.0255 14.2013L37.5904 13.0486C37.6353 12.957 37.7074 12.8816 37.7967 12.8325C37.8861 12.7834 37.9884 12.7632 38.0898 12.7745L38.784 12.8537C38.8853 12.8655 38.9805 12.9082 39.0565 12.9761C39.1327 13.044 39.1859 13.1336 39.2091 13.233L39.4992 14.4835C39.5387 14.6515 39.6129 14.8094 39.7171 14.9471C39.8212 15.0848 39.9531 15.1991 40.1041 15.2827C40.255 15.3664 40.4218 15.4176 40.5938 15.433C40.7657 15.4483 40.939 15.4276 41.1024 15.372L42.3169 14.9555C42.4135 14.9228 42.5177 14.9205 42.6155 14.9492C42.7133 14.9779 42.7998 15.0361 42.8634 15.1158L43.2965 15.6621C43.3598 15.742 43.397 15.8395 43.4028 15.9412C43.4087 16.0431 43.383 16.1441 43.3292 16.2308L42.6486 17.321C42.5572 17.4676 42.4975 17.6317 42.4736 17.8027C42.4495 17.9738 42.4618 18.148 42.5093 18.3141C42.5569 18.4801 42.6389 18.6343 42.7499 18.7667C42.8608 18.899 42.9983 19.0067 43.1535 19.0825L44.3068 19.6468C44.3983 19.6918 44.4736 19.7639 44.5226 19.8533C44.5715 19.9426 44.5917 20.0449 44.5803 20.1462L44.5011 20.8404C44.4894 20.9416 44.4468 21.0367 44.379 21.1128C44.3113 21.1889 44.2216 21.2422 44.1225 21.2654L42.8714 21.5563C42.7034 21.5957 42.5455 21.6699 42.408 21.7741C42.2704 21.8782 42.156 22.0099 42.0723 22.1608C41.9887 22.3118 41.9375 22.4785 41.9221 22.6503C41.9066 22.8222 41.9274 22.9954 41.9829 23.1588L42.3993 24.3734C42.4323 24.4699 42.4346 24.5742 42.406 24.6722C42.3775 24.77 42.3194 24.8567 42.2397 24.9204L41.6927 25.3535C41.6128 25.4168 41.5153 25.4538 41.4134 25.4596C41.3117 25.4653 41.2107 25.4395 41.1241 25.3856L40.0344 24.705C39.8878 24.6141 39.7236 24.555 39.5527 24.5313C39.3818 24.5077 39.2078 24.5199 39.0419 24.5675C38.876 24.615 38.7219 24.6967 38.5894 24.8073C38.4571 24.9181 38.3492 25.0551 38.2729 25.2099L37.708 26.3632C37.663 26.4547 37.591 26.53 37.5016 26.579C37.4122 26.6279 37.3099 26.6481 37.2087 26.6367L36.5144 26.5575C36.4132 26.5458 36.3181 26.5032 36.242 26.4354C36.166 26.3677 36.1126 26.278 36.0894 26.1789L35.7992 24.9284C35.7598 24.7603 35.6856 24.6023 35.5815 24.4646C35.4773 24.3269 35.3456 24.2124 35.1946 24.1287C35.0436 24.045 34.8767 23.9937 34.7047 23.9783C34.5328 23.963 34.3596 23.9836 34.196 24.0393L32.9814 24.4557C32.885 24.4885 32.7808 24.4908 32.6831 24.4622C32.5853 24.4337 32.4986 24.3757 32.4351 24.2961L32.002 23.7491C31.9386 23.6692 31.9015 23.5717 31.8956 23.47C31.8897 23.3681 31.9154 23.2671 31.9692 23.1804L32.6498 22.0909C32.7412 21.9443 32.8009 21.7802 32.8249 21.6092C32.8489 21.4381 32.8367 21.2639 32.7892 21.0978C32.7415 20.9317 32.6596 20.7775 32.5486 20.6452C32.4376 20.5127 32.3001 20.4052 32.145 20.3293L30.9916 19.7651C30.9 19.72 30.8246 19.6479 30.7757 19.5583C30.7267 19.4689 30.7066 19.3664 30.7181 19.2651L30.7973 18.5709C30.809 18.4695 30.8517 18.3744 30.9196 18.2983C30.9876 18.2222 31.0773 18.169 31.1765 18.1458L32.4271 17.8556C32.5951 17.8161 32.753 17.7419 32.8907 17.6377C33.0284 17.5336 33.1426 17.4018 33.2263 17.2508C33.3101 17.0998 33.3612 16.9329 33.3765 16.7611C33.3919 16.5891 33.3711 16.4159 33.3156 16.2524L32.8992 15.0378C32.8663 14.9414 32.864 14.8372 32.8926 14.7394C32.9211 14.6416 32.9792 14.5551 33.0588 14.4915L33.6058 14.0584C33.6856 13.995 33.7831 13.9579 33.8849 13.952C33.9866 13.9461 34.0878 13.9718 34.1744 14.0255L35.264 14.7062C35.4107 14.7971 35.5748 14.8563 35.7457 14.88C35.9166 14.9036 36.0906 14.8913 36.2565 14.8437C36.4224 14.7962 36.5766 14.7145 36.709 14.6039C36.8414 14.4932 36.9492 14.3561 37.0255 14.2013Z" stroke="white" stroke-width="0.966102" stroke-linejoin="round"/>
</svg>
