<svg width="51" height="57" viewBox="0 0 51 57" fill="none" xmlns="http://www.w3.org/2000/svg">
<path d="M25.2257 52.774C38.7445 52.774 49.7035 41.8149 49.7035 28.2962C49.7035 14.7774 38.7445 3.81836 25.2257 3.81836C11.707 3.81836 0.747925 14.7774 0.747925 28.2962C0.747925 41.8149 11.707 52.774 25.2257 52.774Z" stroke="white" stroke-width="0.934926" stroke-miterlimit="10"/>
<path d="M16.2346 34.14L16.6948 34.2226C16.7221 34.0705 16.6724 33.9147 16.5622 33.8064L16.2346 34.14ZM13.4627 38.8339L13.1893 38.4547C13.0431 38.5602 12.9705 38.7404 13.0028 38.9178C13.0352 39.0951 13.1666 39.2381 13.3407 39.2851L13.4627 38.8339ZM20.423 36.7908L20.5916 36.3548C20.4263 36.2909 20.239 36.3259 20.108 36.4454L20.423 36.7908ZM37.562 27.8959C37.562 32.9968 32.3726 37.2954 25.7461 37.2954V38.2303C32.6874 38.2303 38.4969 33.6939 38.4969 27.8959H37.562ZM25.7461 18.4964C32.3726 18.4964 37.562 22.7951 37.562 27.8959H38.4969C38.4969 22.098 32.6874 17.5615 25.7461 17.5615V18.4964ZM13.9302 27.8959C13.9302 22.7951 19.1196 18.4964 25.7461 18.4964V17.5615C18.8048 17.5615 12.9953 22.098 12.9953 27.8959H13.9302ZM16.5622 33.8064C14.9053 32.1798 13.9302 30.1214 13.9302 27.8959H12.9953C12.9953 30.4087 14.099 32.6984 15.9072 34.4735L16.5622 33.8064ZM13.7362 39.213C15.7752 37.7425 16.446 35.6078 16.6948 34.2226L15.7745 34.0574C15.5447 35.337 14.9442 37.1891 13.1893 38.4547L13.7362 39.213ZM20.108 36.4454C18.9843 37.4701 17.651 38.0382 16.4359 38.3068C15.2109 38.5775 14.1482 38.535 13.5848 38.3826L13.3407 39.2851C14.0867 39.4869 15.308 39.5136 16.6377 39.2196C17.9772 38.9235 19.4694 38.293 20.7379 37.1362L20.108 36.4454ZM25.7461 37.2954C23.8959 37.2954 22.1475 36.9567 20.5916 36.3548L20.2543 37.2268C21.9193 37.8709 23.7822 38.2303 25.7461 38.2303V37.2954Z" fill="white"/>
</svg>
