<svg width="20" height="20" viewBox="0 0 20 20" fill="none" xmlns="http://www.w3.org/2000/svg">
<path fill-rule="evenodd" clip-rule="evenodd" d="M19.94 14.123C19.8915 15.1875 19.7225 15.9145 19.475 16.5505C19.224 17.2178 18.8303 17.8222 18.3215 18.3215C17.8221 18.8302 17.2177 19.2239 16.5505 19.475C15.9145 19.722 15.1875 19.891 14.123 19.94C13.0565 19.9885 12.716 20 10 20C7.284 20 6.9435 19.9885 5.877 19.94C4.8125 19.891 4.0855 19.722 3.4495 19.475C2.7823 19.2239 2.17791 18.8302 1.6785 18.3215C1.16967 17.8222 0.776005 17.2178 0.525 16.5505C0.2775 15.9145 0.1085 15.1875 0.06 14.123C0.0115 13.0565 0 12.7155 0 10C0 7.284 0.0115 6.9435 0.06 5.877C0.1085 4.8125 0.2775 4.086 0.525 3.4495C0.77612 2.7823 1.16977 2.17791 1.6785 1.6785C2.17791 1.16977 2.7823 0.77612 3.4495 0.525C4.0855 0.278 4.8125 0.1085 5.877 0.06C6.9435 0.0115 7.284 0 10 0C12.716 0 13.0565 0.0115 14.123 0.06C15.1875 0.1085 15.9145 0.278 16.5505 0.525C17.2177 0.77612 17.8221 1.16977 18.3215 1.6785C18.8302 2.17791 19.2239 2.7823 19.475 3.4495C19.7225 4.086 19.8915 4.8125 19.94 5.877C19.9885 6.9435 20 7.284 20 10C20 12.7155 19.9885 13.0565 19.94 14.123ZM18.14 5.959C18.0955 4.984 17.9325 4.4545 17.7955 4.1025C17.614 3.6355 17.3975 3.3025 17.0475 2.9525C16.6975 2.6025 16.3645 2.386 15.898 2.2045C15.5455 2.0675 15.016 1.9045 14.041 1.86C12.9865 1.812 12.67 1.8015 10 1.8015C7.33 1.8015 7.0135 1.812 5.959 1.86C4.984 1.9045 4.4545 2.0675 4.1025 2.2045C3.6355 2.386 3.3025 2.6025 2.9525 2.9525C2.6025 3.3025 2.386 3.6355 2.2045 4.1025C2.0675 4.4545 1.9045 4.984 1.86 5.959C1.812 7.0135 1.802 7.33 1.802 10C1.802 12.67 1.812 12.986 1.86 14.041C1.9045 15.0155 2.0675 15.5455 2.2045 15.8975C2.386 16.3645 2.6025 16.6975 2.9525 17.0475C3.3025 17.3975 3.6355 17.6145 4.1025 17.7955C4.4545 17.9325 4.984 18.0955 5.959 18.14C7.0135 18.188 7.3295 18.198 10 18.198C12.6705 18.198 12.9865 18.188 14.041 18.14C15.016 18.0955 15.5455 17.9325 15.898 17.7955C16.3323 17.6353 16.7251 17.3797 17.0475 17.0475C17.3975 16.6975 17.614 16.3645 17.7955 15.8975C17.9325 15.5455 18.0955 15.0155 18.14 14.041C18.188 12.986 18.198 12.67 18.198 10C18.198 7.33 18.188 7.0135 18.14 5.959ZM15.338 5.862C15.0197 5.862 14.7145 5.73557 14.4895 5.51053C14.2644 5.28548 14.138 4.98026 14.138 4.662C14.138 4.34374 14.2644 4.03852 14.4895 3.81347C14.7145 3.58843 15.0197 3.462 15.338 3.462C15.6563 3.462 15.9615 3.58843 16.1865 3.81347C16.4116 4.03852 16.538 4.34374 16.538 4.662C16.538 4.98026 16.4116 5.28548 16.1865 5.51053C15.9615 5.73557 15.6563 5.862 15.338 5.862ZM10 15.135C7.164 15.135 4.865 12.836 4.865 10C4.865 7.164 7.164 4.8645 10 4.8645C12.836 4.8645 15.135 7.164 15.135 10C15.135 12.836 12.836 15.135 10 15.135ZM10 6.6665C9.56224 6.6665 9.12876 6.75272 8.72433 6.92025C8.31989 7.08777 7.9524 7.33332 7.64286 7.64286C7.33332 7.9524 7.08777 8.31989 6.92025 8.72433C6.75272 9.12876 6.6665 9.56224 6.6665 10C6.6665 10.4378 6.75272 10.8712 6.92025 11.2757C7.08777 11.6801 7.33332 12.0476 7.64286 12.3571C7.9524 12.6667 8.31989 12.9122 8.72433 13.0798C9.12876 13.2473 9.56224 13.3335 10 13.3335C10.8841 13.3335 11.732 12.9823 12.3571 12.3571C12.9823 11.732 13.3335 10.8841 13.3335 10C13.3335 9.1159 12.9823 8.26801 12.3571 7.64286C11.732 7.01771 10.8841 6.6665 10 6.6665Z" fill="white"/>
</svg>
