<svg width="57" height="57" viewBox="0 0 57 57" fill="none" xmlns="http://www.w3.org/2000/svg">
<path d="M28.5 56.5C43.964 56.5 56.5 43.964 56.5 28.5C56.5 13.036 43.964 0.5 28.5 0.5C13.036 0.5 0.5 13.036 0.5 28.5C0.5 43.964 13.036 56.5 28.5 56.5Z" stroke="white"/>
<path d="M19.64 22.04L21.715 23.56H25.72" stroke="white" stroke-miterlimit="10"/>
<path d="M27.1773 22.4796L22.3844 25.9838C22.2641 26.0716 22.1662 26.1814 22.0971 26.3059C22.028 26.4303 21.9893 26.5664 21.9837 26.7053L21.921 30.0546C21.8746 31.1986 23.3857 31.8325 24.3388 31.069L26.2719 27.4386C26.404 27.2599 26.577 27.1084 26.7793 26.994C26.9817 26.8796 27.2089 26.8049 27.4459 26.7749C27.683 26.7448 27.9244 26.7601 28.1543 26.8196C28.3843 26.8792 28.5975 26.9817 28.7799 27.1205L37.5 34.0001L41.68 31.4634L38.2804 22.341L36.3774 22.9582C36.021 23.0732 35.6372 23.1034 35.2638 23.0457L28.931 22.0689C28.6229 22.021 28.3068 22.0329 28.0043 22.1038C27.7017 22.1746 27.4197 22.3028 27.1773 22.4796Z" stroke="white" stroke-miterlimit="10"/>
<path d="M31 33L35.9389 36.848C36.2519 37.1143 36.6588 37.2543 37.0756 37.2388C37.4923 37.2234 37.887 37.0538 38.178 36.7652C38.3287 36.6159 38.4471 36.4391 38.5264 36.2452C38.6056 36.0513 38.6441 35.844 38.6397 35.6355C38.6352 35.427 38.5878 35.2215 38.5002 35.0309C38.4127 34.8403 38.2867 34.6685 38.1297 34.5254L37.6885 34.123" stroke="white" stroke-miterlimit="10"/>
<path d="M29 35.5L33.4438 39.1559C33.7823 39.4034 34.2218 39.5333 34.6718 39.5189C35.1218 39.5046 35.5481 39.3471 35.8629 39.0788C36.8283 38.25 36.506 37.1706 35.5 36.5" stroke="white" stroke-miterlimit="10"/>
<path d="M27.5 38L30.5646 40.6636C30.8839 40.9193 31.299 41.0537 31.7241 41.0389C32.1492 41.0241 32.5519 40.8613 32.8487 40.5841C33.0024 40.4407 33.5 40 33.5 39" stroke="white" stroke-miterlimit="10"/>
<path d="M25.6472 40.3608L27.0994 41.6572C27.4125 41.9171 27.8195 42.0536 28.2364 42.0387C28.6533 42.0238 29.0481 41.8585 29.3393 41.577C29.4896 41.4312 30.5 40.4998 30.5 40.4998" stroke="white" stroke-miterlimit="10"/>
<path d="M22.8541 33.6781L22.6726 33.5375C22.1401 33.1254 21.3525 33.1965 20.9135 33.6962L19.0248 35.8459C18.5857 36.3457 18.6614 37.0849 19.1938 37.497L19.3754 37.6375C19.9079 38.0497 20.6954 37.9786 21.1345 37.4789L23.0232 35.3291C23.4623 34.8294 23.3866 34.0902 22.8541 33.6781Z" stroke="white" stroke-miterlimit="10"/>
<path d="M21.0959 39.2766L20.8975 39.1488C20.6178 38.9687 20.4411 38.7094 20.4063 38.4278C20.3715 38.1462 20.4814 37.8653 20.7119 37.6468L22.3385 36.1088C22.4527 36.0006 22.5931 35.911 22.7516 35.8452C22.9102 35.7794 23.0838 35.7386 23.2626 35.7251C23.4414 35.7117 23.6218 35.7259 23.7935 35.7668C23.9653 35.8078 24.125 35.8748 24.2636 35.964L24.4627 36.0923C24.6012 36.1814 24.7159 36.291 24.8001 36.4147C24.8844 36.5383 24.9366 36.6738 24.9537 36.8132C24.9709 36.9526 24.9527 37.0933 24.9002 37.2272C24.8477 37.3612 24.7618 37.4857 24.6476 37.5938L23.021 39.1319C22.7903 39.3502 22.4579 39.4881 22.0969 39.5153C21.7359 39.5424 21.3758 39.4566 21.0959 39.2766Z" stroke="white" stroke-miterlimit="10"/>
<path d="M25.962 40.0032C26.4371 39.4625 26.3552 38.6627 25.7791 38.2168C25.203 37.7709 24.3508 37.8477 23.8758 38.3885L23.2657 39.0829C22.7906 39.6236 22.8725 40.4234 23.4486 40.8693C24.0247 41.3152 24.8769 41.2383 25.3519 40.6976L25.962 40.0032Z" stroke="white" stroke-miterlimit="10"/>
<path d="M19.8611 34.5277C20.3362 33.9869 20.2543 33.1871 19.6782 32.7412C19.1021 32.2953 18.2499 32.3722 17.7749 32.9129L17.1648 33.6073C16.6897 34.148 16.7716 34.9479 17.3477 35.3938C17.9238 35.8397 18.776 35.7628 19.2511 35.2221L19.8611 34.5277Z" stroke="white" stroke-miterlimit="10"/>
<path d="M15.08 30.3999L17.36 33.4399" stroke="white" stroke-miterlimit="10"/>
<path d="M19.5184 22.0229L14.2843 31.3696C14.2169 31.4899 14.1241 31.5965 14.0113 31.6833C13.8985 31.7701 13.7679 31.8353 13.6273 31.8751C13.4867 31.9149 13.3389 31.9284 13.1925 31.915C13.0462 31.9015 12.9042 31.8613 12.7749 31.7967L9.57619 30.1969C9.32161 30.0695 9.13175 29.8551 9.04758 29.6C8.96341 29.345 8.99168 29.0698 9.12628 28.8337L14.425 19.5435C14.4928 19.4247 14.5855 19.3195 14.6977 19.2339C14.81 19.1483 14.9396 19.084 15.0791 19.0446C15.2185 19.0053 15.365 18.9918 15.5102 19.0048C15.6554 19.0178 15.7963 19.0572 15.9249 19.1205L19.0577 20.6649C19.3127 20.7907 19.5038 21.0034 19.5899 21.2574C19.6761 21.5113 19.6504 21.7862 19.5184 22.0229Z" stroke="white" stroke-miterlimit="10"/>
<path d="M37.9359 21.3909L41.5006 31.2346C41.5465 31.3613 41.6195 31.4784 41.7152 31.5788C41.8109 31.6792 41.9275 31.761 42.058 31.8193C42.1886 31.8777 42.3305 31.9114 42.4754 31.9186C42.6203 31.9257 42.7653 31.9061 42.9019 31.8609L46.2804 30.7434C46.5488 30.6544 46.7686 30.472 46.8923 30.2353C47.0161 29.9986 47.0339 29.7267 46.942 29.4781L43.3042 19.6781C43.2577 19.5528 43.1846 19.4372 43.0893 19.3381C42.994 19.2389 42.8783 19.1582 42.7489 19.1004C42.6195 19.0426 42.4789 19.0091 42.3353 19.0016C42.1917 18.9941 42.048 19.0129 41.9123 19.0569L38.6068 20.1284C38.3375 20.2158 38.1163 20.3971 37.9908 20.6332C37.8653 20.8694 37.8456 21.1415 37.9359 21.3909Z" stroke="white" stroke-miterlimit="10"/>
</svg>
