<?xml version="1.0" encoding="UTF-8"?> <svg xmlns="http://www.w3.org/2000/svg" width="200" height="120" viewBox="0 0 200 120" fill="none"><path fill="url(#a)" d="M0 0h200v120H0z"></path><circle cx="99.5" cy="60.5" r="37" stroke="#fff"></circle><path d="M101.744 69.058c7.581 0 13.726-6.139 13.726-13.711s-6.145-13.711-13.726-13.711c-7.58 0-13.725 6.139-13.725 13.71 0 7.573 6.145 13.712 13.725 13.712z" stroke="#fff" stroke-width="1.25" stroke-miterlimit="10" stroke-linecap="round" stroke-linejoin="round"></path><path d="m92.04 45.655-2.76-2.757c-6.884 6.876-6.884 18.023 0 24.899 6.883 6.875 18.044 6.875 24.927 0l-2.759-2.754M101.745 72.952v4.744M109.852 77.697H93.637V81h16.215v-3.303zM111.389 45.524l-19.29 19.268" stroke="#fff" stroke-width="1.25" stroke-miterlimit="10" stroke-linecap="round" stroke-linejoin="round"></path><path d="M111.449 65.044c2.153-2.15-.448-8.234-5.808-13.588-5.36-5.354-11.45-7.952-13.603-5.802-2.152 2.15.449 8.233 5.809 13.588 5.36 5.354 11.45 7.952 13.602 5.802z" stroke="#fff" stroke-width="1.25" stroke-miterlimit="10" stroke-linecap="round" stroke-linejoin="round"></path><defs><linearGradient id="a" x1="218.437" y1="60" x2="47.178" y2="181.896" gradientUnits="userSpaceOnUse"><stop stop-color="#2D46B9"></stop><stop offset="1" stop-color="#C3F0C8"></stop></linearGradient></defs></svg> 