<svg width="57" height="57" viewBox="0 0 57 57" fill="none" xmlns="http://www.w3.org/2000/svg">
<path d="M30.2071 35.0036C35.9684 35.0036 40.6388 30.3383 40.6388 24.5834C40.6388 18.8284 35.9684 14.1631 30.2071 14.1631C24.4458 14.1631 19.7754 18.8284 19.7754 24.5834C19.7754 30.3383 24.4458 35.0036 30.2071 35.0036Z" stroke="white" stroke-miterlimit="10" stroke-linecap="round" stroke-linejoin="round"/>
<path d="M22.8302 17.2172L20.7328 15.1221C15.5015 20.3476 15.5015 28.8194 20.7328 34.0449C25.964 39.2704 34.4462 39.2704 39.6775 34.0449L37.5811 31.9518" stroke="white" stroke-miterlimit="10" stroke-linecap="round" stroke-linejoin="round"/>
<path d="M30.2053 37.9634V41.5695" stroke="white" stroke-miterlimit="10" stroke-linecap="round" stroke-linejoin="round"/>
<path d="M36.3679 41.5703H24.0442V44.0809H36.3679V41.5703Z" stroke="white" stroke-miterlimit="10" stroke-linecap="round" stroke-linejoin="round"/>
<path d="M37.5369 17.1177L22.8765 31.761" stroke="white" stroke-miterlimit="10" stroke-linecap="round" stroke-linejoin="round"/>
<path d="M37.5816 31.9532C39.2174 30.3193 37.241 25.6958 33.1672 21.6265C29.0934 17.5572 24.4649 15.583 22.8291 17.217C21.1933 18.8509 23.1698 23.4744 27.2435 27.5437C31.3173 31.613 35.9459 33.5872 37.5816 31.9532Z" stroke="white" stroke-miterlimit="10" stroke-linecap="round" stroke-linejoin="round"/>
<path d="M28.5 56.5C43.964 56.5 56.5 43.964 56.5 28.5C56.5 13.036 43.964 0.5 28.5 0.5C13.036 0.5 0.5 13.036 0.5 28.5C0.5 43.964 13.036 56.5 28.5 56.5Z" stroke="white"/>
</svg>
