<svg width="57" height="57" viewBox="0 0 57 57" fill="none" xmlns="http://www.w3.org/2000/svg">
<path d="M39.2174 21.9712L22.9989 38.1896L27.3066 42.4973L43.5251 26.2787L39.2174 21.9712Z" stroke="white" stroke-width="0.966102" stroke-linejoin="round"/>
<path d="M43.2157 19.8541L45.6395 22.2779C45.8897 22.5281 46.0303 22.8675 46.0303 23.2213C46.0303 23.5751 45.8897 23.9145 45.6395 24.1648L43.5231 26.281L39.2156 21.9733L41.3318 19.8571C41.5816 19.6074 41.92 19.4669 42.2732 19.4663C42.6263 19.4657 42.9652 19.6051 43.2157 19.8541Z" stroke="white" stroke-width="0.966102" stroke-linejoin="round"/>
<path d="M25.1548 40.3441L41.3734 24.1255" stroke="white" stroke-width="0.966102" stroke-linejoin="round"/>
<path d="M22.9982 38.1895L21.0127 44.4827L27.306 42.4966L22.9982 38.1895Z" stroke="white" stroke-width="0.966102" stroke-linejoin="round"/>
<path d="M25.5167 26.9682C26.8943 26.9682 28.0111 25.8515 28.0111 24.4739C28.0111 23.0963 26.8943 21.9795 25.5167 21.9795C24.1391 21.9795 23.0223 23.0963 23.0223 24.4739C23.0223 25.8515 24.1391 26.9682 25.5167 26.9682Z" stroke="white" stroke-width="0.966102" stroke-linejoin="round"/>
<path d="M16.4954 30.1142C17.8729 30.1142 18.9897 28.9974 18.9897 27.6199C18.9897 26.2422 17.8729 25.1255 16.4954 25.1255C15.1177 25.1255 14.001 26.2422 14.001 27.6199C14.001 28.9974 15.1177 30.1142 16.4954 30.1142Z" stroke="white" stroke-width="0.966102" stroke-linejoin="round"/>
<path d="M18.9913 15.6333V27.076" stroke="white" stroke-width="0.966102" stroke-linejoin="round"/>
<path d="M28.0108 12.6392L27.9386 23.7915" stroke="white" stroke-width="0.966102" stroke-linejoin="round"/>
<path d="M28.0119 15.5484L18.9913 18.5418V15.632L28.0119 12.6392V15.5484Z" stroke="white" stroke-width="0.966102" stroke-linejoin="round"/>
<path d="M28.5 56.0341C43.7065 56.0341 56.0339 43.7067 56.0339 28.5002C56.0339 13.2937 43.7065 0.966309 28.5 0.966309C13.2934 0.966309 0.966064 13.2937 0.966064 28.5002C0.966064 43.7067 13.2934 56.0341 28.5 56.0341Z" stroke="white" stroke-width="0.966102" stroke-miterlimit="10"/>
</svg>
