<svg width="541" height="18" viewBox="0 0 541 18" fill="none" xmlns="http://www.w3.org/2000/svg">
<path d="M520.493 2.45947H517.895V0.580078H525.064V2.45947H522.465V17.0537H520.493V2.45947Z" fill="#3624E9"/>
<path d="M508.579 0.580078H510.528V7.58719H514.264V0.580078H516.213V17.0537H514.264V9.42018H510.528V17.0537H508.579V0.580078Z" fill="#3624E9"/>
<path d="M501.642 17.2858C500.745 17.2858 499.979 16.9609 499.345 16.3113C498.726 15.6616 498.254 14.718 497.93 13.4806C497.605 12.2276 497.442 10.704 497.442 8.9097C497.442 7.03804 497.613 5.46801 497.953 4.19962C498.309 2.91575 498.835 1.95672 499.531 1.32252C500.227 0.672857 501.085 0.348022 502.106 0.348022C502.895 0.348022 503.576 0.533641 504.148 0.904879C504.736 1.26065 505.2 1.80204 505.54 2.52905C505.896 3.24058 506.12 4.11454 506.213 5.15091H504.241C504.179 4.51672 504.055 3.98306 503.869 3.54995C503.684 3.10137 503.444 2.7688 503.15 2.55225C502.856 2.32022 502.508 2.20421 502.106 2.20421C501.518 2.20421 501.031 2.4517 500.644 2.94669C500.258 3.4262 499.964 4.16095 499.763 5.15091C499.577 6.14088 499.484 7.37061 499.484 8.84009C499.484 10.3405 499.577 11.578 499.763 12.5525C499.948 13.527 500.227 14.254 500.598 14.7335C500.985 15.213 501.464 15.4528 502.036 15.4528C502.516 15.4528 502.934 15.2981 503.289 14.9887C503.645 14.6794 503.916 14.2308 504.101 13.643C504.303 13.0552 504.403 12.3669 504.403 11.578V8.67767L505.331 9.58257H501.92V7.74958H506.236V17.0537H504.566V14.1534L504.867 13.6894C504.774 14.4473 504.589 15.097 504.31 15.6384C504.032 16.1643 503.668 16.5742 503.22 16.8681C502.771 17.1465 502.245 17.2858 501.642 17.2858Z" fill="#3624E9"/>
<path d="M493.443 0.580078H495.392V17.0537H493.443V0.580078Z" fill="#3624E9"/>
<path d="M486.011 0.580078H487.96V15.2207H491.765V17.0537H486.011V0.580078Z" fill="#3624E9"/>
<path d="M479.753 2.45947H477.154V0.580078H484.324V2.45947H481.725V17.0537H479.753V2.45947Z" fill="#3624E9"/>
<path d="M471.879 17.2858C470.858 17.2858 470 16.9687 469.304 16.3345C468.623 15.6848 468.105 14.7335 467.749 13.4806C467.409 12.2122 467.239 10.6576 467.239 8.81689C467.239 6.97617 467.409 5.42934 467.749 4.17641C468.105 2.90802 468.623 1.95672 469.304 1.32252C470 0.672857 470.858 0.348022 471.879 0.348022C472.884 0.348022 473.727 0.665122 474.408 1.29932C475.104 1.93352 475.622 2.88481 475.963 4.15321C476.318 5.42161 476.496 6.97617 476.496 8.81689C476.496 10.6576 476.318 12.2122 475.963 13.4806C475.622 14.7335 475.104 15.6848 474.408 16.3345C473.727 16.9687 472.884 17.2858 471.879 17.2858ZM471.856 15.4296C472.428 15.4296 472.908 15.1821 473.294 14.6871C473.681 14.1921 473.967 13.4574 474.153 12.4829C474.354 11.4929 474.454 10.2709 474.454 8.81689C474.454 7.36287 474.354 6.14862 474.153 5.17412C473.967 4.18415 473.681 3.44167 473.294 2.94669C472.908 2.4517 472.436 2.20421 471.879 2.20421C471.307 2.20421 470.827 2.4517 470.44 2.94669C470.054 3.44167 469.76 4.18415 469.559 5.17412C469.373 6.14862 469.28 7.36287 469.28 8.81689C469.28 10.2709 469.373 11.4929 469.559 12.4829C469.76 13.4574 470.054 14.1921 470.44 14.6871C470.827 15.1821 471.299 15.4296 471.856 15.4296Z" fill="#3624E9"/>
<path d="M458.73 0.580078H461.654C462.613 0.580078 463.417 0.757963 464.067 1.11373C464.716 1.4695 465.204 2.00316 465.529 2.7147C465.853 3.42624 466.016 4.30019 466.016 5.33657C466.016 6.38841 465.846 7.2701 465.505 7.98163C465.18 8.67771 464.693 9.21136 464.044 9.5826C463.394 9.93837 462.59 10.1162 461.631 10.1162H460.679V17.0537H458.73V0.580078ZM461.561 8.28327C462.102 8.28327 462.551 8.17499 462.907 7.95843C463.278 7.74188 463.556 7.41704 463.742 6.98393C463.928 6.53535 464.02 5.98623 464.02 5.33657C464.02 4.6869 463.928 4.14551 463.742 3.7124C463.572 3.27929 463.301 2.95445 462.93 2.7379C462.574 2.52134 462.133 2.41307 461.607 2.41307H460.679V8.28327H461.561Z" fill="#3624E9"/>
<path d="M453.189 17.2858C452.601 17.2858 452.052 17.1775 451.541 16.9609C451.046 16.7289 450.644 16.4118 450.335 16.0096V13.527C450.536 13.9291 450.776 14.2772 451.054 14.5711C451.348 14.8495 451.657 15.0661 451.982 15.2207C452.322 15.36 452.655 15.4296 452.98 15.4296C453.382 15.4296 453.722 15.3368 454.001 15.1511C454.295 14.95 454.511 14.6639 454.65 14.2927C454.805 13.9059 454.882 13.4419 454.882 12.9005C454.882 12.4674 454.828 12.0807 454.72 11.7404C454.627 11.4001 454.457 11.0753 454.21 10.7659C453.962 10.4411 453.614 10.0853 453.165 9.69858L452.493 9.14172C451.796 8.55393 451.271 7.90426 450.915 7.19272C450.559 6.48118 450.381 5.6691 450.381 4.75647C450.381 3.87478 450.528 3.10137 450.822 2.43624C451.131 1.75563 451.557 1.23745 452.098 0.881677C452.655 0.525907 453.297 0.348022 454.024 0.348022C454.364 0.348022 454.689 0.386693 454.998 0.464034C455.308 0.541375 455.586 0.665121 455.834 0.835271C456.097 0.989955 456.305 1.16784 456.46 1.36893V3.64276C456.29 3.34886 456.081 3.09364 455.834 2.87708C455.602 2.66053 455.346 2.49811 455.068 2.38983C454.79 2.26609 454.503 2.20421 454.21 2.20421C453.807 2.20421 453.459 2.30476 453.165 2.50584C452.887 2.70693 452.67 2.99309 452.516 3.36433C452.377 3.73557 452.307 4.17641 452.307 4.68687C452.307 5.08904 452.353 5.45254 452.446 5.77738C452.554 6.08674 452.732 6.39611 452.98 6.70547C453.227 6.99937 453.583 7.33967 454.047 7.72638L454.72 8.28323C455.416 8.87103 455.934 9.53616 456.275 10.2786C456.63 11.0056 456.808 11.8487 456.808 12.8077C456.808 13.7203 456.653 14.5169 456.344 15.1975C456.05 15.8627 455.633 16.3809 455.091 16.7521C454.55 17.1079 453.916 17.2858 453.189 17.2858Z" fill="#3624E9"/>
<path d="M426.326 4.10684H421.779V0.580078H435.097V4.10684H430.549V17.0537H426.326V4.10684Z" fill="#3624E9"/>
<path d="M405.423 0.580078H409.646V6.82152H415.4V0.580078H419.623V17.0537H415.4V10.3482H409.646V17.0537H405.423V0.580078Z" fill="#3624E9"/>
<path d="M393.586 17.4482C392.116 17.4482 390.755 17.1001 389.502 16.4041C388.265 15.708 387.275 14.7258 386.532 13.4574C385.79 12.1735 385.418 10.6886 385.418 9.00252C385.418 7.28554 385.797 5.76192 386.555 4.43165C387.329 3.08591 388.404 2.04181 389.781 1.29933C391.157 0.541387 392.727 0.162415 394.491 0.162415C395.929 0.162415 397.213 0.386704 398.342 0.835283C399.487 1.28386 400.399 1.90259 401.08 2.69147C401.776 3.48035 402.217 4.39298 402.403 5.42935H397.901C397.778 5.08905 397.561 4.77969 397.252 4.50126C396.942 4.22283 396.548 4.00628 396.068 3.85159C395.604 3.69691 395.071 3.61957 394.467 3.61957C393.57 3.61957 392.774 3.82839 392.078 4.24603C391.381 4.66367 390.832 5.27467 390.43 6.07902C390.043 6.8679 389.85 7.81146 389.85 8.90971C389.85 9.97702 390.051 10.8974 390.453 11.6708C390.856 12.4442 391.412 13.0397 392.124 13.4574C392.835 13.8595 393.64 14.0606 394.537 14.0606C395.357 14.0606 396.061 13.9214 396.648 13.643C397.236 13.3491 397.677 12.9469 397.971 12.4365C398.28 11.9105 398.435 11.2996 398.435 10.6035V9.7914L399.688 10.5803H393.748V7.33195H402.495V17.0537H398.597V13.759L398.713 14.5943C398.528 15.0583 398.211 15.5147 397.762 15.9632C397.314 16.3963 396.733 16.7521 396.022 17.0305C395.31 17.309 394.498 17.4482 393.586 17.4482Z" fill="#3624E9"/>
<path d="M378.776 0.580078H382.999V17.0537H378.776V0.580078Z" fill="#3624E9"/>
<path d="M365.43 0.580078H369.653V13.5734H376.637V17.0537H365.43V0.580078Z" fill="#3624E9"/>
<path d="M354.499 4.10684H349.951V0.580078H363.269V4.10684H358.722V17.0537H354.499V4.10684Z" fill="#3624E9"/>
<path d="M340.493 17.4714C338.745 17.4714 337.191 17.1001 335.829 16.3577C334.468 15.6152 333.409 14.5866 332.651 13.2718C331.893 11.9415 331.514 10.4488 331.514 8.7937C331.514 7.1386 331.893 5.66138 332.651 4.36204C333.409 3.04724 334.468 2.0186 335.829 1.27613C337.191 0.533651 338.745 0.162415 340.493 0.162415C342.225 0.162415 343.772 0.533651 345.133 1.27613C346.495 2.0186 347.554 3.05498 348.312 4.38525C349.086 5.70005 349.472 7.17727 349.472 8.8169C349.472 10.472 349.086 11.957 348.312 13.2718C347.554 14.5866 346.495 15.6152 345.133 16.3577C343.772 17.1001 342.225 17.4714 340.493 17.4714ZM340.493 13.643C341.39 13.643 342.179 13.4342 342.86 13.0165C343.556 12.5989 344.089 12.0266 344.461 11.2996C344.847 10.5725 345.041 9.745 345.041 8.8169C345.041 7.88881 344.847 7.06125 344.461 6.33425C344.089 5.60724 343.556 5.03491 342.86 4.61727C342.179 4.19963 341.39 3.99081 340.493 3.99081C339.596 3.99081 338.799 4.19963 338.103 4.61727C337.423 5.03491 336.889 5.60724 336.502 6.33425C336.115 7.06125 335.922 7.88107 335.922 8.7937C335.922 9.72179 336.115 10.5571 336.502 11.2996C336.889 12.0266 337.423 12.5989 338.103 13.0165C338.799 13.4342 339.596 13.643 340.493 13.643Z" fill="#3624E9"/>
<path d="M317.168 0.580078H323.85C325.227 0.580078 326.395 0.812101 327.354 1.27615C328.328 1.72473 329.055 2.35119 329.535 3.15554C330.014 3.95989 330.254 4.89572 330.254 5.96303C330.254 7.01487 329.999 7.94296 329.488 8.74731C328.978 9.53619 328.228 10.1549 327.238 10.6035C326.263 11.0521 325.08 11.2763 323.688 11.2763H321.391V17.0537H317.168V0.580078ZM323.432 8.00484C324.005 8.00484 324.484 7.91976 324.871 7.74961C325.273 7.57946 325.567 7.3397 325.753 7.03034C325.954 6.7055 326.054 6.33427 326.054 5.91662C326.054 5.49898 325.961 5.13548 325.776 4.82611C325.59 4.51675 325.304 4.27699 324.917 4.10684C324.531 3.93669 324.043 3.85161 323.456 3.85161H321.391V8.00484H323.432Z" fill="#3624E9"/>
<path d="M308.38 17.4714C307.004 17.4714 305.704 17.2548 304.482 16.8217C303.276 16.3886 302.394 15.9014 301.837 15.36V10.6963C302.271 11.346 302.843 11.9106 303.554 12.3901C304.281 12.8696 305.055 13.2331 305.875 13.4806C306.694 13.7281 307.46 13.8518 308.172 13.8518C308.682 13.8518 309.107 13.7977 309.448 13.6894C309.804 13.5657 310.074 13.3955 310.26 13.1789C310.446 12.9624 310.538 12.6994 310.538 12.3901C310.538 12.1116 310.469 11.8796 310.329 11.694C310.206 11.5084 309.943 11.3305 309.541 11.1603C309.154 10.9902 308.551 10.8046 307.731 10.6035L306.408 10.2787C304.939 9.92288 303.802 9.36602 302.998 8.60808C302.209 7.85013 301.814 6.79056 301.814 5.42935C301.814 4.48579 302.077 3.61183 302.603 2.80749C303.129 2.00314 303.887 1.3612 304.877 0.881689C305.882 0.402173 307.089 0.162415 308.496 0.162415C309.239 0.162415 309.951 0.239755 310.631 0.394438C311.327 0.533652 311.946 0.71927 312.487 0.951295C313.044 1.16785 313.508 1.40761 313.879 1.67057V6.00941C313.601 5.63818 313.191 5.28241 312.65 4.9421C312.108 4.6018 311.49 4.33111 310.794 4.13002C310.097 3.91346 309.378 3.80519 308.636 3.80519C308.079 3.80519 307.607 3.87479 307.22 4.01401C306.834 4.13775 306.547 4.30791 306.362 4.52446C306.176 4.72555 306.083 4.95757 306.083 5.22053C306.083 5.48349 306.153 5.70005 306.292 5.8702C306.431 6.02488 306.71 6.1873 307.128 6.35745C307.561 6.51213 308.172 6.68228 308.961 6.8679L310.283 7.19273C311.737 7.53304 312.866 8.09763 313.671 8.88651C314.475 9.65992 314.877 10.7272 314.877 12.0884C314.877 13.0939 314.614 14.0065 314.088 14.8263C313.578 15.6461 312.828 16.2958 311.838 16.7753C310.863 17.2394 309.711 17.4714 308.38 17.4714Z" fill="#3624E9"/>
<path d="M284.926 2.08823H282.257L282.698 0.580078H289.659L289.241 2.08823H286.55L282.257 17.0537H280.633L284.926 2.08823Z" fill="#3624E9"/>
<path d="M273.685 0.580078H275.286L273.244 7.72641H277.397L279.462 0.580078H281.063L276.33 17.0537H274.729L276.98 9.21136H272.803L270.553 17.0537H268.952L273.685 0.580078Z" fill="#3624E9"/>
<path d="M262.291 17.2858C261.363 17.2858 260.667 16.9223 260.203 16.1952C259.739 15.4682 259.523 14.4009 259.553 12.9933C259.584 11.5702 259.886 9.84553 260.458 7.81919C260.876 6.3033 261.379 4.9885 261.966 3.87478C262.57 2.76107 263.258 1.89485 264.031 1.27612C264.82 0.657387 265.687 0.348022 266.63 0.348022C267.373 0.348022 267.991 0.541375 268.486 0.928081C268.997 1.31479 269.345 1.87165 269.53 2.59865C269.732 3.31019 269.755 4.14548 269.6 5.10451H268.046C268.138 4.42391 268.138 3.84385 268.046 3.36433C267.953 2.88482 267.767 2.51358 267.489 2.25062C267.21 1.98766 266.847 1.85618 266.398 1.85618C265.81 1.85618 265.246 2.11914 264.704 2.64506C264.178 3.15551 263.683 3.89025 263.219 4.84928C262.755 5.79285 262.345 6.91429 261.99 8.21363C261.541 9.85326 261.27 11.2454 261.178 12.3901C261.1 13.5192 261.193 14.37 261.456 14.9423C261.734 15.5146 262.175 15.8008 262.779 15.8008C263.289 15.8008 263.792 15.6075 264.287 15.2207C264.782 14.834 265.238 14.2849 265.656 13.5734C266.089 12.8464 266.445 11.9879 266.723 10.9979L267.419 8.58487L267.999 9.37374H264.403L264.82 7.86559H269.09L266.468 17.0537H265.099L265.957 14.1302L266.329 13.7358C266.019 14.4783 265.648 15.1202 265.215 15.6616C264.797 16.1875 264.341 16.5897 263.846 16.8681C263.351 17.1465 262.833 17.2858 262.291 17.2858Z" fill="#3624E9"/>
<path d="M258.847 0.580078H260.448L255.459 17.0537H253.858L258.847 0.580078Z" fill="#3624E9"/>
<path d="M251.525 0.580078H253.126L248.81 15.5688H252.755L252.337 17.0537H246.792L251.525 0.580078Z" fill="#3624E9"/>
<path d="M245.137 2.08823H242.469L242.91 0.580078H249.871L249.453 2.08823H246.762L242.469 17.0537H240.845L245.137 2.08823Z" fill="#3624E9"/>
<path d="M233.481 17.2858C232.491 17.2858 231.71 16.9687 231.137 16.3345C230.565 15.6848 230.248 14.6871 230.186 13.3414C230.14 11.9956 230.418 10.3173 231.021 8.30644C231.516 6.58946 232.073 5.14318 232.692 3.96759C233.326 2.79201 234.03 1.89485 234.803 1.27612C235.592 0.657387 236.459 0.348022 237.402 0.348022C238.392 0.348022 239.173 0.672857 239.745 1.32252C240.318 1.95672 240.627 2.94669 240.674 4.29243C240.72 5.6227 240.442 7.301 239.838 9.32734C239.328 11.0288 238.756 12.4751 238.121 13.6662C237.503 14.8418 236.807 15.7389 236.033 16.3577C235.26 16.9764 234.409 17.2858 233.481 17.2858ZM233.666 15.7776C234.239 15.7776 234.796 15.5224 235.337 15.0119C235.878 14.486 236.397 13.7281 236.892 12.7381C237.387 11.7327 237.843 10.5184 238.261 9.09532C238.725 7.50209 238.988 6.17182 239.049 5.10451C239.111 4.02173 238.98 3.20965 238.655 2.66826C238.346 2.12687 237.858 1.85618 237.193 1.85618C236.621 1.85618 236.056 2.11914 235.499 2.64506C234.958 3.15551 234.44 3.91345 233.945 4.91889C233.465 5.90886 233.017 7.11538 232.599 8.53846C232.12 10.1317 231.849 11.4697 231.787 12.5525C231.725 13.6198 231.849 14.4241 232.158 14.9655C232.483 15.5069 232.986 15.7776 233.666 15.7776Z" fill="#3624E9"/>
<path d="M224.992 0.580078H227.358C228.163 0.580078 228.851 0.7889 229.423 1.20654C230.011 1.60872 230.413 2.20424 230.63 2.99313C230.846 3.76654 230.808 4.67143 230.514 5.7078C230.266 6.6359 229.903 7.40931 229.423 8.02804C228.944 8.6313 228.348 9.08761 227.637 9.39698C226.925 9.69088 226.098 9.83783 225.154 9.83783H223.924L221.836 17.0537H220.258L224.992 0.580078ZM225.502 8.35287C226.105 8.35287 226.631 8.25233 227.08 8.05124C227.528 7.83469 227.907 7.51759 228.217 7.09995C228.526 6.66683 228.766 6.12545 228.936 5.47578C229.122 4.76424 229.16 4.15324 229.052 3.64279C228.959 3.13234 228.727 2.74563 228.356 2.48267C228 2.20424 227.536 2.06503 226.964 2.06503H226.128L224.342 8.35287H225.502Z" fill="#3624E9"/>
<path d="M215.132 17.2858C214.482 17.2858 213.902 17.1465 213.392 16.8681C212.897 16.5742 212.533 16.1566 212.301 15.6152L212.812 13.8518C212.935 14.2694 213.098 14.6252 213.299 14.9191C213.516 15.1975 213.778 15.4141 214.088 15.5688C214.397 15.708 214.745 15.7776 215.132 15.7776C215.751 15.7776 216.261 15.6075 216.663 15.2671C217.081 14.9268 217.383 14.5015 217.568 13.991C217.769 13.4651 217.87 12.9237 217.87 12.3669C217.87 12.0266 217.831 11.6862 217.754 11.3459C217.692 11.0056 217.591 10.6731 217.452 10.3482C217.328 10.0234 217.166 9.69858 216.965 9.37374L216.571 8.72408C216.23 8.16722 215.952 7.5949 215.735 7.0071C215.534 6.40384 215.434 5.76964 215.434 5.10451C215.434 4.34656 215.581 3.60409 215.874 2.87708C216.168 2.13461 216.601 1.53134 217.174 1.0673C217.762 0.58778 218.465 0.348022 219.285 0.348022C219.687 0.348022 220.066 0.409896 220.422 0.533642C220.778 0.641919 221.087 0.804335 221.35 1.02089C221.629 1.23745 221.861 1.4772 222.046 1.74016L221.582 3.36433C221.412 3.07043 221.211 2.80747 220.979 2.57545C220.762 2.34343 220.507 2.15781 220.213 2.01859C219.935 1.87938 219.625 1.80977 219.285 1.80977C218.79 1.80977 218.365 1.96445 218.009 2.27382C217.669 2.58318 217.414 2.97762 217.243 3.45714C217.073 3.92119 216.988 4.39297 216.988 4.87249C216.988 5.19732 217.027 5.52215 217.104 5.84698C217.182 6.15635 217.29 6.47345 217.429 6.79828C217.568 7.10765 217.738 7.42475 217.939 7.74958L218.334 8.39925C218.674 8.97157 218.953 9.57483 219.169 10.209C219.386 10.8432 219.494 11.5084 219.494 12.2044C219.494 13.0088 219.332 13.8054 219.007 14.5943C218.682 15.3677 218.187 16.0096 217.522 16.5201C216.872 17.0305 216.076 17.2858 215.132 17.2858Z" fill="#3624E9"/>
<path d="M184.32 5.56859H177.452V0.580078H198.473V5.56859H191.605V17.0537H184.32V5.56859Z" fill="#3624E9"/>
<path d="M153.255 0.580078H160.541V6.19505H168.035V0.580078H175.321V17.0537H168.035V11.0675H160.541V17.0537H153.255V0.580078Z" fill="#3624E9"/>
<path d="M135.618 17.541C133.453 17.541 131.519 17.1775 129.818 16.4505C128.116 15.7235 126.786 14.7026 125.827 13.3878C124.868 12.073 124.388 10.5803 124.388 8.90971C124.388 7.13086 124.945 5.56857 126.059 4.22283C127.188 2.86163 128.781 1.81752 130.839 1.09051C132.911 0.363503 135.317 0 138.055 0C140.251 0 142.231 0.239758 143.994 0.719273C145.758 1.19879 147.189 1.88713 148.287 2.78429C149.401 3.68144 150.104 4.72555 150.398 5.91661H142.695C142.494 5.62271 142.177 5.36748 141.744 5.15093C141.311 4.93437 140.785 4.77196 140.166 4.66368C139.563 4.5554 138.89 4.50126 138.147 4.50126C136.879 4.50126 135.781 4.67915 134.853 5.03492C133.925 5.37522 133.213 5.8702 132.718 6.51987C132.223 7.16953 131.976 7.93521 131.976 8.8169C131.976 9.69859 132.215 10.4643 132.695 11.1139C133.174 11.7481 133.863 12.2354 134.76 12.5757C135.673 12.916 136.755 13.0861 138.008 13.0861C139.06 13.0861 139.988 12.9701 140.793 12.7381C141.612 12.4906 142.247 12.158 142.695 11.7404C143.159 11.3228 143.391 10.8432 143.391 10.3019V9.97702L144.342 11.0211H137.312V7.00712H150.421V17.0537H143.623V14.0142L143.925 14.0838C143.492 14.8108 142.873 15.4373 142.069 15.9632C141.264 16.4737 140.313 16.8604 139.215 17.1234C138.117 17.4018 136.918 17.541 135.618 17.541Z" fill="#3624E9"/>
<path d="M114.849 0.580078H122.134V17.0537H114.849V0.580078Z" fill="#3624E9"/>
<path d="M95.1357 0.580078H102.421V12.0652H112.7V17.0537H95.1357V0.580078Z" fill="#3624E9"/>
<path d="M78.8664 5.56859H71.9985V0.580078H93.0199V5.56859H86.152V17.0537H78.8664V5.56859Z" fill="#3624E9"/>
<path d="M58.4641 17.6338C55.8809 17.6338 53.5993 17.2703 51.6194 16.5433C49.6394 15.8008 48.1003 14.7644 47.0021 13.4342C45.9193 12.1039 45.3779 10.5648 45.3779 8.8169C45.3779 7.06899 45.9193 5.5299 47.0021 4.19963C48.1003 2.86936 49.6394 1.84072 51.6194 1.11371C53.5993 0.371238 55.8809 0 58.4641 0C61.0627 0 63.352 0.371238 65.332 1.11371C67.3119 1.84072 68.8433 2.86936 69.926 4.19963C71.0243 5.5299 71.5734 7.06899 71.5734 8.8169C71.5734 10.5648 71.0243 12.1039 69.926 13.4342C68.8433 14.7644 67.3119 15.8008 65.332 16.5433C63.352 17.2703 61.0627 17.6338 58.4641 17.6338ZM58.4641 12.7613C59.5623 12.7613 60.5291 12.5989 61.3644 12.2741C62.1996 11.9492 62.8416 11.4929 63.2902 10.9051C63.7387 10.3019 63.963 9.60578 63.963 8.8169C63.963 8.02802 63.7387 7.33968 63.2902 6.75189C62.8416 6.14863 62.1996 5.68458 61.3644 5.35975C60.5291 5.03491 59.5623 4.8725 58.4641 4.8725C57.3813 4.8725 56.4223 5.03491 55.587 5.35975C54.7517 5.68458 54.102 6.14863 53.638 6.75189C53.1894 7.33968 52.9651 8.02802 52.9651 8.8169C52.9651 9.60578 53.1894 10.3019 53.638 10.9051C54.102 11.4929 54.7517 11.9492 55.587 12.2741C56.4223 12.5989 57.3813 12.7613 58.4641 12.7613Z" fill="#3624E9"/>
<path d="M23.2629 0.580078H35.4674C37.2308 0.580078 38.7776 0.82757 40.1079 1.32255C41.4536 1.81754 42.49 2.51361 43.217 3.41077C43.944 4.30793 44.3075 5.35977 44.3075 6.56629C44.3075 7.75735 43.944 8.80919 43.217 9.72181C42.49 10.6189 41.4536 11.315 40.1079 11.81C38.7776 12.2895 37.2308 12.5293 35.4674 12.5293H30.5485V17.0537H23.2629V0.580078ZM34.4465 8.19046C34.9105 8.19046 35.3127 8.12858 35.653 8.00484C35.9933 7.86562 36.2563 7.67227 36.4419 7.42478C36.6275 7.17729 36.7203 6.88339 36.7203 6.54309C36.7203 6.21825 36.6275 5.93209 36.4419 5.6846C36.2563 5.43711 35.9933 5.25149 35.653 5.12774C35.3127 4.98853 34.9105 4.91892 34.4465 4.91892H30.5485V8.19046H34.4465Z" fill="#3624E9"/>
<path d="M10.5803 17.6338C8.38379 17.6338 6.35745 17.425 4.50126 17.0073C2.64507 16.5742 1.16012 15.9864 0.0464048 15.244V10.1858C0.742476 10.8046 1.66284 11.3537 2.80749 11.8332C3.95214 12.2973 5.1896 12.6608 6.51987 12.9237C7.8656 13.1867 9.17267 13.3182 10.4411 13.3182C11.1371 13.3182 11.7327 13.2795 12.2277 13.2022C12.7226 13.1248 13.0939 13.0088 13.3414 12.8541C13.6043 12.6994 13.7358 12.5138 13.7358 12.2973C13.7358 12.0962 13.643 11.9415 13.4574 11.8332C13.2718 11.7095 12.8851 11.6012 12.2973 11.5084C11.7095 11.4001 10.7968 11.2841 9.55938 11.1603L7.47116 10.9747C5.13546 10.7582 3.30247 10.2477 1.9722 9.44337C0.657401 8.63902 0 7.48663 0 5.98621C0 4.74875 0.417643 3.68144 1.25293 2.78429C2.10368 1.88713 3.31794 1.19879 4.8957 0.719273C6.48893 0.239758 8.38379 0 10.5803 0C11.8023 0 12.9701 0.0773409 14.0838 0.232023C15.213 0.386706 16.2339 0.603261 17.1466 0.88169C18.0592 1.14465 18.8249 1.43081 19.4436 1.74018V6.61268C18.9795 6.2105 18.3144 5.83926 17.4482 5.49896C16.5974 5.14319 15.592 4.85703 14.4319 4.64047C13.2718 4.40845 12.0343 4.29244 10.7195 4.29244C9.94608 4.29244 9.29642 4.33111 8.7705 4.40845C8.24458 4.48579 7.83467 4.59407 7.54077 4.73328C7.26234 4.8725 7.12313 5.05038 7.12313 5.26694C7.12313 5.42162 7.21594 5.5531 7.40156 5.66138C7.58718 5.76966 7.97388 5.87793 8.56168 5.98621C9.14947 6.07902 10.0776 6.17957 11.346 6.28784L13.411 6.49666C15.8395 6.71322 17.7343 7.23141 19.0956 8.05122C20.4568 8.85557 21.1374 10.0544 21.1374 11.6476C21.1374 12.9005 20.712 13.9756 19.8612 14.8727C19.0259 15.7544 17.8194 16.435 16.2417 16.9145C14.6639 17.394 12.7768 17.6338 10.5803 17.6338Z" fill="#3624E9"/>
</svg>
