<svg width="57" height="57" viewBox="0 0 57 57" fill="none" xmlns="http://www.w3.org/2000/svg">
<path d="M28.5 56.0339C43.7065 56.0339 56.0339 43.7065 56.0339 28.5C56.0339 13.2934 43.7065 0.966064 28.5 0.966064C13.2934 0.966064 0.966064 13.2934 0.966064 28.5C0.966064 43.7065 13.2934 56.0339 28.5 56.0339Z" stroke="white" stroke-width="0.966102" stroke-miterlimit="10"/>
<path d="M35.9114 40.7204C35.9521 40.0372 35.9571 39.3524 35.9263 38.6686C35.8854 37.8773 35.1837 36.7277 34.5731 36.2222C33.2929 35.1629 31.4212 34.4811 30.7988 33.9328C30.4671 33.6395 30.1237 32.9861 30.894 32.2957C32.2466 31.0836 33.0986 29.5968 33.0986 27.9726C33.0986 27.3492 32.972 26.7325 32.7265 26.1595C32.4811 25.5866 32.1218 25.0694 31.6705 24.6395C31.2193 24.2095 30.6855 23.8757 30.1014 23.6581C29.5172 23.4407 28.895 23.344 28.2724 23.374H28.7204C28.098 23.3443 27.4762 23.4412 26.8924 23.6589C26.3086 23.8766 25.7751 24.2106 25.3242 24.6405C24.8732 25.0704 24.5143 25.5874 24.269 26.1601C24.0237 26.7329 23.8973 27.3495 23.8973 27.9726C23.8973 29.5968 24.7488 31.0836 26.1013 32.2957C26.8716 32.9861 26.5282 33.6395 26.1966 33.9328C25.5779 34.4817 23.7043 35.1635 22.4223 36.2222C21.8115 36.7277 21.1099 37.8773 21.0691 38.6686C21.0386 39.3524 21.0436 40.0372 21.084 40.7204" stroke="white" stroke-width="0.966102" stroke-linejoin="round"/>
<path d="M43.7263 35.5515C43.7549 35.0716 43.7583 34.5907 43.7368 34.1105C43.7077 33.5536 43.2152 32.7492 42.7864 32.3928C41.888 31.6504 40.5738 31.1702 40.1376 30.7841C39.9049 30.5787 39.6636 30.1196 40.205 29.6345C41.1542 28.7838 41.7518 27.7393 41.7518 26.5989C41.7518 26.1615 41.6631 25.7286 41.4908 25.3264C41.3185 24.9242 41.0665 24.5612 40.7498 24.2593C40.4331 23.9575 40.0585 23.723 39.6485 23.5703C39.2386 23.4175 38.8018 23.3494 38.3649 23.3704H38.6792C38.2423 23.3495 37.8056 23.4176 37.3958 23.5705C36.9859 23.7233 36.6113 23.9577 36.2947 24.2596C35.9781 24.5614 35.7261 24.9244 35.5539 25.3266C35.3817 25.7287 35.2929 26.1616 35.2929 26.5989C35.2929 27.7393 35.8906 28.7838 36.8397 29.6345C37.3805 30.1196 37.1398 30.5787 36.9071 30.7841C36.4709 31.1696 35.1567 31.6504 34.2577 32.3928" stroke="white" stroke-width="0.966102" stroke-linejoin="round"/>
<path d="M22.7411 32.3928C21.842 31.6504 20.5278 31.1702 20.0916 30.7841C19.859 30.5787 19.6182 30.1196 20.159 29.6345C21.1088 28.7838 21.7059 27.7393 21.7059 26.5989C21.7059 26.1616 21.6171 25.7287 21.4449 25.3266C21.2727 24.9244 21.0206 24.5614 20.704 24.2596C20.3874 23.9577 20.0129 23.7233 19.603 23.5705C19.1931 23.4176 18.7565 23.3495 18.3195 23.3704H18.6339C18.1969 23.3494 17.7601 23.4175 17.3502 23.5703C16.9403 23.723 16.5656 23.9575 16.2489 24.2593C15.9323 24.5612 15.6802 24.9242 15.5079 25.3264C15.3357 25.7286 15.2469 26.1615 15.2469 26.5989C15.2469 27.7393 15.8452 28.7838 16.7937 29.6345C17.3351 30.1196 17.0938 30.5787 16.8612 30.7841C16.425 31.1696 15.1108 31.6504 14.2117 32.3928C13.7835 32.7474 13.2905 33.5549 13.262 34.1105C13.2404 34.5907 13.2439 35.0716 13.2725 35.5515" stroke="white" stroke-width="0.966102" stroke-linejoin="round"/>
<path d="M28.5012 15.5267V12.3198" stroke="white" stroke-width="0.966102" stroke-linejoin="round"/>
<path d="M32.816 16.4963L34.0555 13.5381" stroke="white" stroke-width="0.966102" stroke-linejoin="round"/>
<path d="M36.4463 18.9801L38.675 16.6741" stroke="white" stroke-width="0.966102" stroke-linejoin="round"/>
<path d="M24.2364 16.498L22.9971 13.5398" stroke="white" stroke-width="0.966102" stroke-linejoin="round"/>
<path d="M20.6058 18.9801L18.3765 16.6741" stroke="white" stroke-width="0.966102" stroke-linejoin="round"/>
</svg>
