<svg width="20" height="20" viewBox="0 0 20 20" fill="none" xmlns="http://www.w3.org/2000/svg">
<path fill-rule="evenodd" clip-rule="evenodd" d="M20 3.89001C19.2499 4.22063 18.4543 4.43638 17.64 4.53001C18.4938 4.03076 19.1371 3.23824 19.45 2.30001C18.6381 2.76429 17.7569 3.09517 16.84 3.28001C16.2773 2.68821 15.5514 2.27709 14.7545 2.09894C13.9576 1.92078 13.1257 1.98363 12.3646 2.27949C11.6035 2.57535 10.9476 3.09087 10.4802 3.76048C10.0129 4.4301 9.75522 5.22357 9.74 6.04001C9.74085 6.34991 9.77777 6.65865 9.85 6.96001C8.22446 6.88101 6.63306 6.46511 5.17673 5.73866C3.72039 5.01221 2.43089 3.99108 1.39 2.74001C0.869253 3.62969 0.710666 4.68559 0.947089 5.68899C1.18351 6.69239 1.79683 7.56641 2.66 8.13001C2.0096 8.10996 1.37279 7.93878 0.8 7.63001V7.68001C0.806088 8.61865 1.13722 9.52618 1.73706 10.2482C2.3369 10.9702 3.16837 11.462 4.09 11.64C3.7376 11.7334 3.37455 11.7804 3.01 11.78C2.75189 11.777 2.49442 11.7536 2.24 11.71C2.50941 12.5161 3.02271 13.2186 3.70887 13.7203C4.39502 14.2219 5.22012 14.4979 6.07 14.51C4.61393 15.6385 2.82218 16.2475 0.98 16.24C0.652408 16.2403 0.325115 16.2202 0 16.18C1.88119 17.3719 4.06301 18.0032 6.29 18C7.81397 18.0239 9.32746 17.7443 10.7423 17.1776C12.1572 16.6109 13.4452 15.7683 14.5313 14.699C15.6174 13.6296 16.4798 12.3549 17.0685 10.949C17.6571 9.54313 17.9602 8.03417 17.96 6.51001C17.96 6.33001 17.96 6.16001 17.95 5.98001C18.7539 5.41284 19.4485 4.70474 20 3.89001Z" fill="white"/>
</svg>
